<?xml version="1.0" encoding="UTF-8"?>
<!DOCTYPE svg PUBLIC "-//W3C//DTD SVG 1.1//EN" "http://www.w3.org/Graphics/SVG/1.1/DTD/svg11.dtd">
<svg xmlns="http://www.w3.org/2000/svg" version="1.1" width="512px" height="512px" style="shape-rendering:geometricPrecision; text-rendering:geometricPrecision; image-rendering:optimizeQuality; fill-rule:evenodd; clip-rule:evenodd" xmlns:xlink="http://www.w3.org/1999/xlink">
<g><path style="opacity:0.969" fill="#010101" d="M 403.5,-0.5 C 410.167,-0.5 416.833,-0.5 423.5,-0.5C 452.826,8.71286 465.326,28.7129 461,59.5C 451.474,87.2681 432.141,98.9347 403,94.5C 398.87,103.066 395.036,111.733 391.5,120.5C 388.856,123.773 386.689,127.44 385,131.5C 376.774,150.286 368.274,168.952 359.5,187.5C 382.781,186.343 404.781,180.176 425.5,169C 436.545,156.291 447.211,143.291 457.5,130C 448.833,129.667 440.167,129.333 431.5,129C 428.404,126.971 426.738,124.138 426.5,120.5C 426.544,116.91 428.211,114.41 431.5,113C 447.833,112.333 464.167,112.333 480.5,113C 484.203,116.396 485.369,120.563 484,125.5C 427.667,194.833 371.333,264.167 315,333.5C 314.5,386.832 314.333,440.166 314.5,493.5C 338.219,493.04 361.886,493.54 385.5,495C 390.797,500.499 390.797,505.999 385.5,511.5C 332.167,511.5 278.833,511.5 225.5,511.5C 219.287,506.468 218.953,500.968 224.5,495C 248.448,493.54 272.448,493.04 296.5,493.5C 296.667,440.499 296.5,387.499 296,334.5C 260.636,290.978 225.136,247.644 189.5,204.5C 189.649,203.448 189.483,202.448 189,201.5C 168.333,176.167 147.667,150.833 127,125.5C 126.333,122.5 126.333,119.5 127,116.5C 128.214,114.951 129.714,113.785 131.5,113C 162.498,112.5 193.498,112.333 224.5,112.5C 219.024,71.3581 196.357,45.0247 156.5,33.5C 114.614,24.9653 81.4478,38.2987 57,73.5C 44.0428,94.8967 40.5428,117.563 46.5,141.5C 54.6494,173.154 73.9827,194.987 104.5,207C 114.859,210.605 125.526,212.272 136.5,212C 140.6,213.36 142.933,216.193 143.5,220.5C 142.424,227.229 138.424,230.229 131.5,229.5C 84.6155,225.762 51.7822,202.428 33,159.5C 16.7927,106.124 30.9593,62.9576 75.5,30C 114.833,6.66667 154.167,6.66667 193.5,30C 222.5,49.8123 238.833,77.3123 242.5,112.5C 286.501,112.667 330.501,112.5 374.5,112C 379.406,101.112 384.406,90.2788 389.5,79.5C 390.962,78.5423 392.295,77.3756 393.5,76C 398.669,75.2712 403.669,75.9379 408.5,78C 434.516,78.3158 446.349,65.4825 444,39.5C 443.33,36.8261 442.163,34.4927 440.5,32.5C 436.095,24.6147 429.428,19.4481 420.5,17C 396.411,15.7494 383.577,27.2494 382,51.5C 380.195,53.8257 378.028,55.4923 375.5,56.5C 370.938,56.639 367.771,54.639 366,50.5C 366.052,24.2892 378.552,7.28919 403.5,-0.5 Z"/></g>
<g><path style="opacity:1" fill="#d7fcbc" d="M 440.5,32.5 C 425.077,33.7933 412.577,40.46 403,52.5C 400.053,58.5383 397.22,64.5383 394.5,70.5C 389.519,73.355 384.852,73.0217 380.5,69.5C 377.463,65.725 375.796,61.3917 375.5,56.5C 378.028,55.4923 380.195,53.8257 382,51.5C 383.577,27.2494 396.411,15.7494 420.5,17C 429.428,19.4481 436.095,24.6147 440.5,32.5 Z"/></g>
<g><path style="opacity:1" fill="#fceda4" d="M 156.5,33.5 C 156.062,33.4346 155.728,33.6012 155.5,34C 157.904,37.9722 158.904,42.3056 158.5,47C 159.079,58.3698 154.079,65.8698 143.5,69.5C 143.795,71.7354 143.461,73.7354 142.5,75.5C 142.666,70.1563 142.499,64.8229 142,59.5C 139.045,55.7235 135.212,54.5568 130.5,56C 128.185,57.1094 126.685,58.9427 126,61.5C 125.26,67.2179 125.427,72.8846 126.5,78.5C 112.096,87.2365 100.763,98.9032 92.5,113.5C 86.2033,112.461 79.8699,112.294 73.5,113C 67.6974,117.286 67.0308,122.286 71.5,128C 75.3628,129.354 79.3628,129.854 83.5,129.5C 80.5791,137.584 74.9124,142.751 66.5,145C 59.2677,146.441 52.6011,145.274 46.5,141.5C 40.5428,117.563 44.0428,94.8967 57,73.5C 81.4478,38.2987 114.614,24.9653 156.5,33.5 Z"/></g>
<g><path style="opacity:0.998" fill="#bcf78f" d="M 440.5,32.5 C 442.163,34.4927 443.33,36.8261 444,39.5C 446.349,65.4825 434.516,78.3158 408.5,78C 403.669,75.9379 398.669,75.2712 393.5,76C 392.295,77.3756 390.962,78.5423 389.5,79.5C 385.817,76.8151 382.817,73.4818 380.5,69.5C 384.852,73.0217 389.519,73.355 394.5,70.5C 397.22,64.5383 400.053,58.5383 403,52.5C 412.577,40.46 425.077,33.7933 440.5,32.5 Z"/></g>
<g><path style="opacity:0.999" fill="#fde572" d="M 156.5,33.5 C 196.357,45.0247 219.024,71.3581 224.5,112.5C 193.498,112.333 162.498,112.5 131.5,113C 129.714,113.785 128.214,114.951 127,116.5C 126.333,119.5 126.333,122.5 127,125.5C 147.667,150.833 168.333,176.167 189,201.5C 189.483,202.448 189.649,203.448 189.5,204.5C 175.518,213.606 160.184,218.939 143.5,220.5C 142.933,216.193 140.6,213.36 136.5,212C 125.526,212.272 114.859,210.605 104.5,207C 73.9827,194.987 54.6494,173.154 46.5,141.5C 52.6011,145.274 59.2677,146.441 66.5,145C 74.9124,142.751 80.5791,137.584 83.5,129.5C 95.3326,129.17 98.3326,123.836 92.5,113.5C 100.763,98.9032 112.096,87.2365 126.5,78.5C 130.975,83.3991 135.809,83.7324 141,79.5C 141.791,78.255 142.291,76.9217 142.5,75.5C 143.461,73.7354 143.795,71.7354 143.5,69.5C 154.079,65.8698 159.079,58.3698 158.5,47C 158.904,42.3056 157.904,37.9722 155.5,34C 155.728,33.6012 156.062,33.4346 156.5,33.5 Z"/></g>
<g><path style="opacity:1" fill="#090805" d="M 142.5,75.5 C 142.291,76.9217 141.791,78.255 141,79.5C 135.809,83.7324 130.975,83.3991 126.5,78.5C 125.427,72.8846 125.26,67.2179 126,61.5C 126.685,58.9427 128.185,57.1094 130.5,56C 135.212,54.5568 139.045,55.7235 142,59.5C 142.499,64.8229 142.666,70.1563 142.5,75.5 Z"/></g>
<g><path style="opacity:1" fill="#050503" d="M 92.5,113.5 C 98.3326,123.836 95.3326,129.17 83.5,129.5C 79.3628,129.854 75.3628,129.354 71.5,128C 67.0308,122.286 67.6974,117.286 73.5,113C 79.8699,112.294 86.2033,112.461 92.5,113.5 Z"/></g>
<g><path style="opacity:1" fill="#c8eef9" d="M 391.5,120.5 C 403.167,120.5 414.833,120.5 426.5,120.5C 426.738,124.138 428.404,126.971 431.5,129C 440.167,129.333 448.833,129.667 457.5,130C 447.211,143.291 436.545,156.291 425.5,169C 404.781,180.176 382.781,186.343 359.5,187.5C 368.274,168.952 376.774,150.286 385,131.5C 386.689,127.44 388.856,123.773 391.5,120.5 Z"/></g>
<g><path style="opacity:1" fill="#c3d5d9" d="M 366.5,130.5 C 361.5,130.5 356.5,130.5 351.5,130.5C 285.665,130.168 219.998,130.501 154.5,131.5C 153.711,131.217 153.044,130.717 152.5,130C 224.57,129.169 295.904,129.335 366.5,130.5 Z"/></g>
<g><path style="opacity:1" fill="#e2f6fb" d="M 351.5,130.5 C 349.266,149.869 343.6,168.203 334.5,185.5C 333.675,186.386 332.675,186.719 331.5,186.5C 315.07,183.193 298.737,179.359 282.5,175C 267.93,171.393 253.263,170.726 238.5,173C 234.81,175.169 233.143,178.336 233.5,182.5C 222.566,183.567 211.899,185.9 201.5,189.5C 185.106,170.771 169.439,151.437 154.5,131.5C 219.998,130.501 285.665,130.168 351.5,130.5 Z"/></g>
<g><path style="opacity:1" fill="#c7edf7" d="M 351.5,130.5 C 356.5,130.5 361.5,130.5 366.5,130.5C 358.728,149.381 350.394,168.048 341.5,186.5C 338.02,187.806 334.687,187.806 331.5,186.5C 332.675,186.719 333.675,186.386 334.5,185.5C 343.6,168.203 349.266,149.869 351.5,130.5 Z"/></g>
<g><path style="opacity:1" fill="#fd6c79" d="M 233.5,182.5 C 234.558,185.397 236.558,187.564 239.5,189C 251.899,187.962 264.233,188.629 276.5,191C 293.074,194.741 309.408,198.908 325.5,203.5C 324.448,203.351 323.448,203.517 322.5,204C 304.695,225.413 282.362,240.079 255.5,248C 253.859,249.129 252.859,250.629 252.5,252.5C 235.151,231.814 218.151,210.814 201.5,189.5C 211.899,185.9 222.566,183.567 233.5,182.5 Z"/></g>
<g><path style="opacity:1" fill="#fc4e5f" d="M 252.5,252.5 C 252.859,250.629 253.859,249.129 255.5,248C 282.362,240.079 304.695,225.413 322.5,204C 323.448,203.517 324.448,203.351 325.5,203.5C 328.216,203.678 330.883,204.178 333.5,205C 330.981,208.847 329.815,213.014 330,217.5C 333.703,224.074 338.536,225.074 344.5,220.5C 346.818,215.864 349.151,211.198 351.5,206.5C 368.81,204.911 385.81,202.077 402.5,198C 370,237.833 337.5,277.667 305,317.5C 287.287,295.959 269.787,274.292 252.5,252.5 Z"/></g>
</svg>
